:SAMPLES-PER-SECOND 30
:FULLY-SPECIFIED
:DEGREES
817
root  42.8637 22.4055 0.850861 -50.7917 -75.0251 122.467
RightUpLeg  -146.684 -18.8511 16.4535
RightLeg  102.427 1.6727 -5.18287
RightFoot  -27.8815 0.238945 2.94942
RightToes  3.49245e-010 0 -3.6325e-017
Spine  18.5032 -1.99109 17.1631
Spine1  -75.2156 -2.1351 -9.19403
HEad  -3.25404 18.7677 -2.69975
LeftShoulder1  -0.041438 5.44503 7.28892
LeftArm  -58.6686 -39.7922 4.25715
LeftForeArm  -25.4618 -57.1303 -19.6067
LeftHand  -0.0259272 7.97348 0.762784
RightShoulder  -3.2779 15.2586 -29.5382
RightArm  -60.2217 11.7437 19.6781
RightForeArm  -17.7801 67.8321 31.9247
RightHand  -1.68444 14.5549 -10.1846
LeftUpLeg  -150.421 11.0403 -18.2613
LeftLeg  92.8159 0.258302 -6.19433
LeftFoot  -4.96813 0.795548 -13.5274
LeftToes  -5.36635e-011 -6.70219e-011 5.24975e-011
818
root  42.479 21.8556 1.25206 -61.32 -74.9646 133.785
RightUpLeg  -148.648 -16.6368 18.027
RightLeg  103.653 2.13494 -6.38601
RightFoot  -27.8214 0.214794 2.78743
RightToes  3.49245e-010 0 -3.6325e-017
Spine  16.8339 -0.731486 18.2292
Spine1  -72.836 -1.32669 -11.4776
HEad  -3.8994 18.1027 -4.09583
LeftShoulder1  -0.0164777 4.67862 8.00473
LeftArm  -58.7459 -39.5502 2.84769
LeftForeArm  -24.9914 -56.9115 -19.4117
LeftHand  -0.0197153 7.74378 1.08628
RightShoulder  -3.11757 16.397 -27.488
RightArm  -59.8573 10.4826 16.3468
RightForeArm  -18.3851 68.1271 32.5444
RightHand  -1.6525 14.5214 -10.0178
LeftUpLeg  -153.474 9.12782 -19.5802
LeftLeg  89.0527 -0.148029 -6.42769
LeftFoot  -7.54765 0.568927 -15.6583
LeftToes  -5.36635e-011 -6.70219e-011 5.24975e-011
819
root  42.0027 21.1398 1.7169 -74.3489 -73.974 147.572
RightUpLeg  -150.645 -14.3077 19.1043
RightLeg  105.316 2.51904 -6.92982
RightFoot  -27.653 0.19769 2.68966
RightToes  3.49245e-010 0 -3.6325e-017
Spine  15.9217 0.522567 18.91
Spine1  -71.0591 -0.590082 -13.264
HEad  -5.35671 17.2699 -6.1761
LeftShoulder1  -0.0174884 4.67678 7.99097
LeftArm  -59.2699 -39.6593 2.90997
LeftForeArm  -24.6479 -56.5378 -19.1061
LeftHand  -0.0444131 8.45596 0.0413904
RightShoulder  -2.96441 14.8237 -28.0876
RightArm  -59.9804 11.6553 17.2823
RightForeArm  -18.2118 68.1665 32.6056
RightHand  -1.58754 14.6426 -9.58825
LeftUpLeg  -155.256 7.97292 -20.7282
LeftLeg  85.9692 -0.439043 -4.47632
LeftFoot  -9.28183 0.382994 -16.7651
LeftToes  -5.36635e-011 -6.70219e-011 5.24975e-011
820
root  41.4588 20.4388 2.16103 -83.4225 -72.9141 157.486
RightUpLeg  -152.517 -12.3672 20.7619
RightLeg  106.957 3.05887 -7.82179
RightFoot  -28.0708 0.16607 2.42397
RightToes  3.49245e-010 0 -3.6325e-017
Spine  15.8673 1.79246 18.6685
Spine1  -70.4266 0.379324 -13.0842
HEad  -6.24096 16.7488 -7.68592
LeftShoulder1  -0.00556972 4.19646 8.71072
LeftArm  -59.0783 -39.0303 1.16018
LeftForeArm  -24.3919 -56.8446 -19.3235
LeftHand  -0.0393634 8.93859 0.291878
RightShoulder  -2.7685 13.7626 -27.8982
RightArm  -59.3202 12.4251 16.7572
RightForeArm  -18.9871 68.0683 32.4973
RightHand  -1.59356 14.5174 -9.68397
LeftUpLeg  -156.112 6.67172 -21.3488
LeftLeg  83.6895 -0.50265 -2.66915
LeftFoot  -8.33467 0.192041 -11.8498
LeftToes  -5.36635e-011 -6.70219e-011 5.24975e-011
821
root  40.9716 20.172 2.50086 -78.2109 -71.5242 152.685
RightUpLeg  -155.222 -14.0429 23.0372
RightLeg  107.888 3.59055 -8.85344
RightFoot  -28.8687 0.130613 2.12075
RightToes  3.49245e-010 0 -3.6325e-017
Spine  17.3176 0.122435 17.7944
Spine1  -72.7175 -0.672652 -11.2661
HEad  -6.13643 17.4323 -7.52021
LeftShoulder1  -0.000880293 3.9176 9.51656
LeftArm  -58.7574 -38.3989 0.707473
LeftForeArm  -25.0466 -57.1177 -19.5729
LeftHand  -0.0231225 9.1443 0.792122
RightShoulder  -2.22299 12.3365 -25.7184
RightArm  -58.6128 15.2033 15.2137
RightForeArm  -21.356 67.0109 30.7333
RightHand  -1.55894 15.1932 -9.18623
LeftUpLeg  -156.756 2.65308 -21.4715
LeftLeg  85.5605 -0.281248 -0.111643
LeftFoot  -3.55632 -0.116276 2.6308
LeftToes  -5.36635e-011 -6.70219e-011 5.24975e-011
822
root  40.4096 19.9204 2.91567 -70.2354 -69.8133 144.368
RightUpLeg  -158.604 -17.7348 25.5424
RightLeg  109.373 3.77735 -8.65286
RightFoot  -29.4075 -0.012171 1.17632
RightToes  3.49245e-010 0 -3.6325e-017
Spine  19.62 -1.88875 17.0806
Spine1  -76.4317 -2.35375 -9.15494
HEad  -5.48459 17.661 -8.03194
LeftShoulder1  0.00102436 3.65978 10.6571
LeftArm  -58.3018 -38.2377 -1.7513
LeftForeArm  -23.9295 -57.0762 -19.4734
LeftHand  -0.0281992 9.27854 0.631264
RightShoulder  -2.07081 11.6059 -25.3267
RightArm  -56.9713 15.5549 14.3043
RightForeArm  -23.2122 66.6676 30.2956
RightHand  -1.57853 14.7665 -9.48125
LeftUpLeg  -155.465 0.343987 -20.3708
LeftLeg  87.5324 -0.265432 1.04388
LeftFoot  -6.17438 0.163993 -2.66491
LeftToes  -5.36635e-011 -6.70219e-011 5.24975e-011
